<?xml version="1.0" encoding="UTF-8" standalone="no"?>
<svg xmlns="http://www.w3.org/2000/svg" version="1.2" baseProfile="tiny" viewBox="0.00 0.00 512.00 512.00" width="512.00" height="512.00">
<g>
<path fill="#000000" d="
  M 261.04 0.00
  Q 323.58 1.56 376.56 30.14
  Q 419.30 53.19 449.66 88.58
  Q 509.08 157.84 512.00 250.74
  L 512.00 261.72
  Q 510.86 305.84 495.24 346.97
  A 0.59 0.58 10.0 0 1 494.69 347.35
  L 317.21 347.35
  A 0.23 0.22 27.5 0 1 317.08 346.94
  Q 337.85 332.78 350.18 312.03
  C 386.15 251.53 356.84 173.47 290.12 151.59
  C 241.80 135.75 189.01 155.38 162.50 198.59
  C 136.03 241.73 142.80 297.49 178.43 333.28
  Q 195.45 350.38 218.94 359.01
  A 0.74 0.74 0.0 0 1 219.42 359.70
  L 219.42 509.07
  A 0.16 0.16 0.0 0 1 219.23 509.23
  C 154.68 500.10 95.10 465.70 55.00 414.51
  Q 2.83 347.91 0.00 262.03
  L 0.00 250.60
  C 3.57 113.13 112.84 3.66 250.40 0.00
  L 261.04 0.00
  Z
  M 398.15 113.77
  C 401.99 117.61 405.90 122.32 408.00 124.56
  C 412.43 129.27 415.98 134.62 420.28 140.22
  C 424.06 145.15 428.76 153.60 430.98 157.09
  C 433.96 161.78 436.16 167.27 438.78 172.42
  C 441.93 178.64 444.19 185.86 446.81 192.70
  C 448.81 197.92 449.96 203.79 451.46 209.25
  C 455.33 223.45 456.91 238.91 457.09 253.53
  C 457.13 257.09 457.68 260.42 460.19 262.56
  C 466.31 267.79 475.32 263.76 475.33 255.73
  C 475.42 197.75 452.05 141.81 411.08 100.84
  C 370.10 59.87 314.15 36.51 256.18 36.60
  C 248.15 36.62 244.12 45.63 249.35 51.75
  C 251.49 54.26 254.82 54.81 258.38 54.85
  C 273.00 55.02 288.46 56.60 302.66 60.47
  C 308.12 61.97 313.99 63.12 319.21 65.12
  C 326.05 67.74 333.27 70.00 339.49 73.15
  C 344.64 75.77 350.13 77.97 354.82 80.94
  C 358.32 83.16 366.77 87.86 371.70 91.64
  C 377.30 95.94 382.65 99.49 387.36 103.92
  C 389.60 106.02 394.31 109.93 398.15 113.77
  Z"
/>
<path fill="#000000" d="
  M 512.00 365.63
  L 512.00 512.00
  L 254.26 512.00
  L 238.11 511.36
  A 0.43 0.43 0.0 0 1 237.70 510.93
  L 237.70 366.14
  A 0.51 0.51 0.0 0 1 238.21 365.63
  L 512.00 365.63
  Z
  M 292.59 474.90
  Q 297.11 474.89 300.33 470.97
  A 4.52 4.43 -12.8 0 0 300.89 470.09
  L 319.54 432.70
  A 0.24 0.24 0.0 0 1 320.00 432.81
  Q 320.03 437.39 319.99 480.32
  Q 319.99 486.82 321.23 488.94
  Q 323.48 492.77 328.50 493.50
  A 4.58 4.29 -42.1 0 0 329.53 493.52
  Q 334.68 492.94 337.03 489.04
  Q 338.30 486.92 338.31 480.27
  Q 338.37 403.11 338.21 393.51
  Q 338.09 385.96 331.34 384.26
  C 325.13 382.69 321.78 386.70 319.28 392.23
  Q 319.16 392.49 292.85 445.23
  A 0.34 0.22 -79.2 0 1 292.69 445.40
  Q 292.64 445.42 292.58 445.42
  Q 292.53 445.42 292.47 445.40
  A 0.34 0.22 79.2 0 1 292.32 445.23
  Q 265.98 392.50 265.86 392.24
  C 263.36 386.71 260.01 382.71 253.80 384.28
  Q 247.05 385.98 246.93 393.53
  Q 246.78 403.13 246.87 480.29
  Q 246.89 486.94 248.16 489.06
  Q 250.51 492.96 255.66 493.54
  A 4.58 4.29 42.0 0 0 256.69 493.52
  Q 261.71 492.79 263.96 488.95
  Q 265.20 486.83 265.19 480.33
  Q 265.13 437.40 265.16 432.82
  A 0.24 0.24 0.0 0 1 265.62 432.71
  L 284.29 470.09
  A 4.52 4.43 12.7 0 0 284.85 470.97
  Q 288.07 474.90 292.59 474.90
  Z
  M 366.47 447.89
  Q 383.95 447.99 392.48 447.89
  C 408.43 447.71 420.26 436.07 420.54 420.27
  C 420.66 413.04 420.93 406.22 418.22 400.45
  Q 412.86 388.99 401.36 385.24
  Q 396.56 383.67 384.98 383.91
  Q 380.99 383.99 359.97 383.91
  C 354.75 383.89 351.23 384.46 348.62 388.63
  Q 347.40 390.58 347.41 398.10
  Q 347.46 446.75 347.41 480.85
  C 347.40 486.41 348.08 490.98 353.36 492.88
  Q 359.02 494.92 363.38 490.42
  C 365.22 488.52 365.73 485.45 365.73 483.01
  Q 365.66 460.30 365.73 448.62
  A 0.74 0.73 -0.0 0 1 366.47 447.89
  Z
  M 448.08 438.78
  Q 448.08 441.65 449.90 444.13
  C 452.24 447.31 455.41 447.95 459.41 447.94
  Q 464.59 447.92 484.15 447.93
  A 0.42 0.42 0.0 0 1 484.57 448.35
  L 484.57 474.73
  A 0.62 0.61 90.0 0 1 483.96 475.35
  L 457.93 475.35
  A 0.92 0.92 0.0 0 1 457.10 474.83
  C 456.61 473.80 456.76 472.42 456.10 471.28
  Q 453.23 466.31 447.87 466.37
  C 443.03 466.42 439.06 470.30 438.94 475.01
  C 438.77 482.23 437.68 488.68 443.36 492.30
  Q 445.58 493.71 452.41 493.67
  Q 467.66 493.57 490.58 493.65
  C 495.73 493.66 499.20 492.96 501.72 488.83
  Q 502.83 486.99 502.84 479.45
  Q 502.85 475.83 502.84 438.78
  Q 502.84 401.73 502.84 398.10
  Q 502.83 390.56 501.72 388.72
  C 499.20 384.59 495.73 383.89 490.58 383.90
  Q 467.66 383.98 452.41 383.88
  Q 445.58 383.85 443.36 385.26
  C 437.68 388.88 438.77 395.33 438.94 402.55
  C 439.06 407.26 443.03 411.14 447.87 411.19
  Q 453.23 411.24 456.10 406.27
  C 456.76 405.13 456.61 403.75 457.10 402.72
  A 0.92 0.92 0.0 0 1 457.93 402.20
  L 483.96 402.20
  A 0.62 0.61 90.0 0 1 484.57 402.82
  L 484.57 429.20
  A 0.42 0.42 0.0 0 1 484.15 429.62
  Q 464.59 429.63 459.41 429.61
  C 455.41 429.60 452.24 430.24 449.90 433.43
  Q 448.08 435.90 448.08 438.78
  Z"
/>
</g>
<path fill="#000000" d="
  M 347.35 255.91
  A 91.36 91.36 0.0 0 1 255.99 347.27
  A 91.36 91.36 0.0 0 1 164.63 255.91
  A 91.36 91.36 0.0 0 1 255.99 164.55
  A 91.36 91.36 0.0 0 1 347.35 255.91
  Z
  M 310.82 255.92
  A 54.82 54.82 0.0 0 0 256.00 201.10
  A 54.82 54.82 0.0 0 0 201.18 255.92
  A 54.82 54.82 0.0 0 0 256.00 310.74
  A 54.82 54.82 0.0 0 0 310.82 255.92
  Z"
/>
<path fill="#000000" d="
  M 365.71 402.77
  A 0.59 0.59 0.0 0 1 366.30 402.18
  L 392.35 402.18
  A 9.98 9.70 0.0 0 1 402.33 411.88
  L 402.33 419.94
  A 9.98 9.70 0.0 0 1 392.35 429.64
  L 366.30 429.64
  A 0.59 0.59 0.0 0 1 365.71 429.05
  L 365.71 402.77
  Z"
/>
<circle fill="#000000" cx="255.99" cy="255.92" r="36.45"/>
</svg>
